# xmcd CD database file
#
# Track frame offsets:
#	150
#	20866
#	36986
#	58742
#	77028
#	95079
#	116676
#	131846
#	148947
#	166928
#	180233
#	207883
#
# Disc length: 4440 seconds
#
# Revision: 1
# Processed by: cddbd v1.5.2PL0 Copyright (c) Steve Scherf et al.
# Submitted via: CDex 1.70beta3
#
DISCID=af11560c
DTITLE=George Harrison - George Harrison
DYEAR=1979
DGENRE=Rock
TTITLE0=Love Comes To Everyone
TTITLE1=Not Guilty
TTITLE2=Here Comes The Moon
TTITLE3=Soft-Hearted Hana
TTITLE4=Blow Away
TTITLE5=Faster
TTITLE6=Dark Sweet Lady
TTITLE7=Your Love Is Forever
TTITLE8=Soft Touch
TTITLE9=If You Believe
TTITLE10=Here Comes The Moon (Demon Version)
TTITLE11=Faixa De Dados
EXTD=YEAR: 1979
EXTT0=
EXTT1=
EXTT2=
EXTT3=
EXTT4=
EXTT5=
EXTT6=
EXTT7=
EXTT8=
EXTT9=
EXTT10=
EXTT11=
PLAYORDER=
